<?xml version="1.0" encoding="utf-8"?>
<!-- Generator: Adobe Illustrator 19.1.0, SVG Export Plug-In . SVG Version: 6.00 Build 0)  -->
<svg version="1.1" id="Слой_1" xmlns="http://www.w3.org/2000/svg" xmlns:xlink="http://www.w3.org/1999/xlink" x="0px" y="0px"
	 viewBox="0 0 200 100" style="enable-background:new 0 0 200 100;" xml:space="preserve">
<style type="text/css">
	.st0{fill:#FFFFFF;}
	.st1{fill:#F7323F;}
	.st2{fill:none;stroke:#FFFFFF;stroke-width:2;stroke-miterlimit:10;}
</style>
<path class="st0" d="M7,19.5H3.6v-9H1.3V7.4l2.3,0l0-1.8c0-2.5,0.7-4.1,3.7-4.1h2.5v3.1H8.2C7,4.6,7,5,7,5.8l0,1.6h2.8l-0.3,3.1
	l-2.5,0L7,19.5z"/>
<g>
	<path class="st0" d="M45.9,6.6c0.5,0.8,0.7,1.8,0.7,2.9c0,3.3-2.6,5.9-5.9,5.9c-3.3,0-5.9-2.6-5.9-5.9c0-1,0.3-2,0.7-2.9h-3.8v9.5
		c0,1.3,1.1,2.4,2.4,2.4h13.1c1.3,0,2.4-1.1,2.4-2.4V6.6H45.9z"/>
	<path class="st0" d="M40.7,5.2c-2.4,0-4.3,1.9-4.3,4.3c0,2.4,1.9,4.3,4.3,4.3c2.4,0,4.3-1.9,4.3-4.3C45,7.2,43.1,5.2,40.7,5.2z
		 M43.1,10.2c-0.4,0-0.7-0.3-0.7-0.7c0-0.9-0.7-1.6-1.6-1.6c-0.4,0-0.7-0.3-0.7-0.7c0-0.4,0.3-0.7,0.7-0.7c1.7,0,3.1,1.4,3.1,3.1
		C43.8,9.9,43.5,10.2,43.1,10.2z"/>
	<path class="st0" d="M47.3,0.6H34.1c-1.3,0-2.4,1.1-2.4,2.4v2.2h5c1.1-1,2.5-1.6,4-1.6c1.6,0,3,0.6,4,1.6h5V3
		C49.7,1.6,48.6,0.6,47.3,0.6z M47.9,4.2h-2.1V2h2.1V4.2z"/>
</g>
<path class="st1" d="M7,41H3.6v-9H1.3v-3.1l2.3,0l0-1.8c0-2.5,0.7-4.1,3.7-4.1h2.5v3.1H8.2C7,26.1,7,26.6,7,27.4l0,1.6h2.8L9.4,32
	L7,32L7,41z"/>
<g>
	<path class="st1" d="M46.3,28.5c0.5,0.8,0.7,1.8,0.7,2.9c0,3.3-2.6,5.9-5.9,5.9c-3.3,0-5.9-2.6-5.9-5.9c0-1,0.3-2,0.7-2.9h-3.8V38
		c0,1.3,1.1,2.4,2.4,2.4h13.1c1.3,0,2.4-1.1,2.4-2.4v-9.5H46.3z"/>
	<path class="st1" d="M41.1,27.1c-2.4,0-4.3,1.9-4.3,4.3c0,2.4,1.9,4.3,4.3,4.3c2.4,0,4.3-1.9,4.3-4.3C45.4,29,43.5,27.1,41.1,27.1z
		 M43.5,32c-0.4,0-0.7-0.3-0.7-0.7c0-0.9-0.7-1.6-1.6-1.6c-0.4,0-0.7-0.3-0.7-0.7s0.3-0.7,0.7-0.7c1.7,0,3.1,1.4,3.1,3.1
		C44.2,31.7,43.9,32,43.5,32z"/>
	<path class="st1" d="M47.7,22.4H34.5c-1.3,0-2.4,1.1-2.4,2.4V27h5c1.1-1,2.5-1.6,4-1.6c1.6,0,3,0.6,4,1.6h5v-2.2
		C50.1,23.5,49,22.4,47.7,22.4z M48.4,26h-2.1v-2.1h2.1V26z"/>
</g>
<polyline class="st2" points="42.9,64 22,78.9 1.1,64 "/>
</svg>
