<?xml version="1.0" encoding="utf-8"?>
<!-- Generator: Adobe Illustrator 19.1.0, SVG Export Plug-In . SVG Version: 6.00 Build 0)  -->
<svg version="1.1" id="Слой_1" xmlns="http://www.w3.org/2000/svg" xmlns:xlink="http://www.w3.org/1999/xlink" x="0px" y="0px"
	 viewBox="0 0 235 75" style="enable-background:new 0 0 235 75;" xml:space="preserve">
<style type="text/css">
	.st0{fill:#CA4D4B;}
	.st1{fill:#FFFFFF;}
</style>
<g>
	<g>
		<g>
			<path class="st0" d="M228,36.5h-9.3c-3.9,0-7.4-2.1-9.2-5.6l-10-19.1c-0.5-0.9-1.9-0.9-2.3,0l-10,19.1c-1.8,3.4-5.3,5.6-9.2,5.6
				c-3.9,0-7.4-2.1-9.2-5.6l-10-19.1c-0.5-0.9-1.9-0.9-2.3,0l-10,19.1c-1.8,3.4-5.3,5.6-9.2,5.6c-3.9,0-7.4-2.1-9.2-5.6l-10-19.1
				c-0.5-0.9-1.9-0.9-2.3,0l-10,19.1c-1.8,3.4-5.3,5.6-9.2,5.6c-3.9,0-7.4-2.1-9.2-5.6L77,11.9c-0.5-0.9-1.9-0.9-2.3,0L64.6,31
				c-1.8,3.4-5.3,5.6-9.2,5.6H44.8c-3.9,0-7.4-2.1-9.2-5.6L32,24.2c-1.6-3-1.6-6.7,0-9.7l5.2-9.9c1.2-2.2,3.9-3.1,6.1-1.9
				c2.2,1.2,3.1,3.9,1.9,6.1L40,18.7c-0.2,0.4-0.2,0.8,0,1.2l3.6,6.8c0.2,0.4,0.7,0.7,1.2,0.7h10.6c0.5,0,0.9-0.3,1.2-0.7l10-19.1
				c1.8-3.4,5.3-5.6,9.2-5.6c3.9,0,7.4,2.1,9.2,5.6l10,19.1c0.5,0.9,1.9,0.9,2.3,0l10-19.1c1.8-3.4,5.3-5.6,9.2-5.6
				c3.9,0,7.4,2.1,9.2,5.6l10,19.1c0.5,0.9,1.9,0.9,2.3,0l10-19.1c1.8-3.4,5.3-5.6,9.2-5.6c3.9,0,7.4,2.1,9.2,5.6l10,19.1
				c0.5,0.9,1.9,0.9,2.3,0l10-19.1c1.8-3.4,5.3-5.6,9.2-5.6c3.9,0,7.4,2.1,9.2,5.6l10,19.1c0.2,0.4,0.7,0.7,1.2,0.7h9.3
				c2.5,0,4.5,2,4.5,4.5C232.5,34.5,230.5,36.5,228,36.5z"/>
		</g>
		<g>
			<path class="st0" d="M21.8,36.5c-2.5,0-4.5-2-4.5-4.5V11.2H8c-2.5,0-4.5-2-4.5-4.5s2-4.5,4.5-4.5h13.8c2.5,0,4.5,2,4.5,4.5V32
				C26.4,34.5,24.3,36.5,21.8,36.5z"/>
		</g>
		<g>
			<circle class="st0" cx="75.8" cy="30" r="4.7"/>
		</g>
		<g>
			<circle class="st0" cx="198.3" cy="30" r="4.7"/>
		</g>
	</g>
	<g>
		<path class="st1" d="M37.3,51.1c0-0.4,0.1-0.8,0.4-1.1c0.2-0.3,0.6-0.4,1.1-0.4c0.5,0,0.8,0.1,1.1,0.4c0.3,0.3,0.4,0.6,0.4,1.1V63
			c0,0.7,0.1,1.2,0.3,1.6c0.2,0.3,0.6,0.5,1.1,0.5c0.4,0,0.9-0.1,1.4-0.3c0.3-0.1,0.6-0.2,0.9-0.1c0.3,0.1,0.5,0.3,0.6,0.6
			c0.3,0.8,0,1.4-0.8,1.8c-0.7,0.4-1.5,0.6-2.6,0.6c-2.6,0-3.9-1.4-3.9-4.2V51.1z"/>
		<path class="st1" d="M53.8,65.4c-0.8,1.5-2.2,2.2-4.1,2.2c-1.3,0-2.3-0.3-3-1c-0.7-0.7-1.1-1.6-1.1-2.8c0-1.5,0.5-2.5,1.6-3.2
			c1.1-0.7,2.4-1,4-1c1.1,0,2,0.1,2.7,0.2v-0.3c0-0.8-0.2-1.5-0.5-1.9c-0.4-0.5-1.1-0.7-2.1-0.7c-0.2,0-0.4,0-0.6,0
			c-0.2,0-0.4,0.1-0.6,0.1c-0.2,0.1-0.4,0.1-0.5,0.1l-0.6,0.2c-0.3,0.1-0.5,0.1-0.6,0.2c-0.3,0.1-0.6,0.1-0.9,0
			c-0.3-0.1-0.5-0.3-0.6-0.6c-0.2-0.6,0-1.1,0.6-1.5c0.9-0.6,2.3-1,4.2-1c3.4,0,5.1,1.6,5.1,4.8v6.6c0,0.4-0.1,0.8-0.3,1.1
			c-0.2,0.3-0.6,0.4-1,0.4c-0.5,0-0.8-0.1-1-0.4c-0.2-0.3-0.3-0.6-0.3-1.1V65.4z M52.9,64.3c0.6-0.7,0.9-1.5,0.9-2.3v-0.4
			c-0.5-0.1-1.3-0.1-2.3-0.1c-2.1,0-3.1,0.7-3.1,2.2c0,0.5,0.2,1,0.5,1.3c0.4,0.3,0.9,0.5,1.5,0.5C51.4,65.3,52.3,65,52.9,64.3z"/>
		<path class="st1" d="M67.6,55.3c0.8,0.4,1,1,0.7,1.7c-0.3,0.6-0.8,0.7-1.6,0.5c-1.2-0.5-2.1-0.7-2.7-0.7c-1.2,0-1.7,0.4-1.7,1.2
			c0,0.4,0.2,0.8,0.7,1.1c0.4,0.3,1,0.5,1.6,0.7c0.6,0.2,1.3,0.4,1.9,0.7c0.6,0.3,1.2,0.7,1.6,1.2c0.4,0.6,0.7,1.2,0.7,2
			c0,1.3-0.4,2.2-1.3,2.9c-0.9,0.7-2.1,1-3.8,1c-1.7,0-3-0.3-4-1c-0.7-0.5-0.9-1.1-0.6-1.8c0.3-0.6,0.9-0.7,1.9-0.3
			c1.1,0.5,2.1,0.7,3,0.7c1.3,0,1.9-0.4,1.9-1.3c0-0.4-0.2-0.8-0.7-1.1c-0.4-0.3-1-0.5-1.6-0.7c-0.6-0.2-1.3-0.4-1.9-0.7
			c-0.6-0.3-1.2-0.7-1.6-1.2c-0.4-0.6-0.7-1.3-0.7-2.1c0-1.2,0.4-2.1,1.2-2.7c0.8-0.6,1.9-0.9,3.3-0.9
			C65.4,54.5,66.6,54.7,67.6,55.3z"/>
		<path class="st1" d="M70.7,53.1c0-0.4,0.1-0.8,0.4-1.1c0.2-0.3,0.6-0.4,1.1-0.4c0.5,0,0.8,0.1,1.1,0.4c0.3,0.3,0.4,0.6,0.4,1.1
			v1.6h2.2c0.9,0,1.4,0.4,1.4,1.2c0,0.8-0.5,1.2-1.4,1.2h-2.2v5.7c0,0.7,0.1,1.3,0.3,1.6c0.2,0.3,0.6,0.5,1.1,0.5
			c0.4,0,0.9-0.1,1.4-0.3c0.3-0.1,0.6-0.2,0.9-0.1c0.3,0.1,0.5,0.3,0.6,0.6c0.3,0.7,0,1.3-0.8,1.8c-0.7,0.4-1.5,0.6-2.6,0.6
			c-2.6,0-3.9-1.5-3.9-4.4V53.1z"/>
		<path class="st1" d="M79.6,51.1c0-0.4,0.1-0.8,0.4-1.1c0.2-0.3,0.6-0.4,1-0.4c0.5,0,0.8,0.1,1.1,0.4c0.3,0.3,0.4,0.6,0.4,1.1v9.4
			l4.4-5c0.8-0.9,1.5-1,2.2-0.4c0.3,0.3,0.4,0.6,0.3,0.9c0,0.4-0.2,0.7-0.5,1.1l-3.6,3.9l4.1,3.9c0.3,0.3,0.5,0.7,0.6,1
			c0,0.4-0.1,0.7-0.3,1c-0.7,0.7-1.4,0.7-2.2-0.2l-4.8-4.8v4c0,0.4-0.1,0.8-0.4,1.1c-0.2,0.3-0.6,0.4-1.1,0.4
			c-0.5,0-0.8-0.1-1.1-0.4c-0.2-0.3-0.4-0.6-0.4-1.1V51.1z"/>
		<path class="st1" d="M91.5,56.2c0-0.4,0.1-0.8,0.4-1.1c0.2-0.3,0.6-0.4,1.1-0.4c0.5,0,0.8,0.1,1.1,0.4c0.3,0.3,0.4,0.6,0.4,1
			c0.3-0.5,0.7-0.9,1.1-1.2c0.5-0.3,1-0.5,1.6-0.5c1,0,1.7,0.2,2.1,0.7c0.4,0.5,0.5,1,0.2,1.5c-0.3,0.7-0.8,0.8-1.6,0.6
			c-0.5-0.2-0.9-0.2-1.2-0.2c-1.5,0-2.2,1.5-2.2,4.4v4.4c0,0.4-0.1,0.8-0.4,1.1c-0.3,0.3-0.6,0.4-1.1,0.4c-0.5,0-0.8-0.1-1.1-0.4
			c-0.3-0.3-0.4-0.6-0.4-1.1V56.2z"/>
		<path class="st1" d="M108.3,65.4c-0.8,1.5-2.2,2.2-4.1,2.2c-1.3,0-2.3-0.3-3-1c-0.7-0.7-1.1-1.6-1.1-2.8c0-1.5,0.5-2.5,1.6-3.2
			c1.1-0.7,2.4-1,4-1c1.1,0,2,0.1,2.7,0.2v-0.3c0-0.8-0.2-1.5-0.5-1.9c-0.4-0.5-1.1-0.7-2.1-0.7c-0.2,0-0.4,0-0.6,0
			c-0.2,0-0.4,0.1-0.6,0.1c-0.2,0.1-0.4,0.1-0.5,0.1l-0.6,0.2c-0.3,0.1-0.5,0.1-0.6,0.2c-0.3,0.1-0.6,0.1-0.9,0
			c-0.3-0.1-0.5-0.3-0.6-0.6c-0.2-0.6,0-1.1,0.6-1.5c0.9-0.6,2.3-1,4.2-1c3.4,0,5.1,1.6,5.1,4.8v6.6c0,0.4-0.1,0.8-0.3,1.1
			c-0.2,0.3-0.6,0.4-1,0.4c-0.5,0-0.8-0.1-1-0.4c-0.2-0.3-0.3-0.6-0.3-1.1V65.4z M107.4,64.3c0.6-0.7,0.9-1.5,0.9-2.3v-0.4
			c-0.5-0.1-1.3-0.1-2.3-0.1c-2.1,0-3.1,0.7-3.1,2.2c0,0.5,0.2,1,0.5,1.3c0.4,0.3,0.9,0.5,1.5,0.5C106,65.3,106.8,65,107.4,64.3z"/>
		<path class="st1" d="M114.1,54.6c0-1.8,0.3-3.1,0.9-3.9c0.8-0.9,1.9-1.4,3.5-1.4c1.2,0,2.2,0.2,2.8,0.6c0.7,0.4,0.9,0.9,0.7,1.5
			c-0.2,0.7-0.8,0.9-1.6,0.6c-0.6-0.2-1.2-0.3-1.7-0.3c-1.1,0-1.6,0.7-1.6,2v0.9h2.2c0.9,0,1.4,0.4,1.4,1.2c0,0.8-0.5,1.2-1.4,1.2
			H117V71c0,0.4-0.1,0.8-0.4,1.1c-0.3,0.3-0.6,0.4-1.1,0.4c-0.5,0-0.8-0.1-1.1-0.4c-0.3-0.3-0.4-0.6-0.4-1.1V54.6z"/>
		<path class="st1" d="M122.9,53.1c0-0.4,0.1-0.8,0.4-1.1c0.2-0.3,0.6-0.4,1.1-0.4c0.5,0,0.8,0.1,1.1,0.4c0.3,0.3,0.4,0.6,0.4,1.1
			v1.6h2.2c0.9,0,1.4,0.4,1.4,1.2c0,0.8-0.5,1.2-1.4,1.2h-2.2v5.7c0,0.7,0.1,1.3,0.3,1.6c0.2,0.3,0.6,0.5,1.1,0.5
			c0.4,0,0.9-0.1,1.4-0.3c0.3-0.1,0.6-0.2,0.9-0.1c0.3,0.1,0.5,0.3,0.6,0.6c0.3,0.7,0,1.3-0.8,1.8c-0.7,0.4-1.5,0.6-2.6,0.6
			c-2.6,0-3.9-1.5-3.9-4.4V53.1z"/>
		<path class="st1" d="M144.1,66c-0.2,0.5-0.4,0.9-0.6,1.2c-0.2,0.3-0.6,0.4-1,0.4c-0.4,0-0.7-0.1-1-0.3c-0.2-0.2-0.4-0.6-0.6-1.1
			l-1.9-5.8l-1.8,5.7c-0.2,0.5-0.3,0.9-0.6,1.1c-0.2,0.2-0.6,0.4-1,0.4c-0.4,0-0.8-0.1-1-0.4c-0.2-0.3-0.4-0.6-0.6-1.1l-2.9-8.8
			c-0.4-1.3-0.2-2.2,0.7-2.4c0.5-0.2,0.9-0.1,1.3,0.2c0.3,0.3,0.6,0.8,0.8,1.5l2,6.8l1.8-5.8c0.2-0.8,0.7-1.1,1.3-1.1
			c0.6,0,1,0.4,1.3,1.1l2,5.9l2-7.1c0.3-1.2,0.9-1.6,1.8-1.4c0.8,0.2,1.1,0.9,0.7,2L144.1,66z"/>
		<path class="st1" d="M155.8,65.4c-0.8,1.5-2.2,2.2-4.1,2.2c-1.3,0-2.3-0.3-3-1c-0.7-0.7-1.1-1.6-1.1-2.8c0-1.5,0.5-2.5,1.6-3.2
			c1.1-0.7,2.4-1,4-1c1.1,0,2,0.1,2.7,0.2v-0.3c0-0.8-0.2-1.5-0.5-1.9c-0.4-0.5-1.1-0.7-2.1-0.7c-0.2,0-0.4,0-0.6,0
			c-0.2,0-0.4,0.1-0.6,0.1c-0.2,0.1-0.4,0.1-0.5,0.1l-0.6,0.2c-0.3,0.1-0.5,0.1-0.6,0.2c-0.3,0.1-0.6,0.1-0.9,0
			c-0.3-0.1-0.5-0.3-0.6-0.6c-0.2-0.6,0-1.1,0.6-1.5c0.9-0.6,2.3-1,4.2-1c3.4,0,5.1,1.6,5.1,4.8v6.6c0,0.4-0.1,0.8-0.3,1.1
			c-0.2,0.3-0.6,0.4-1,0.4c-0.5,0-0.8-0.1-1-0.4c-0.2-0.3-0.3-0.6-0.3-1.1V65.4z M154.9,64.3c0.6-0.7,0.9-1.5,0.9-2.3v-0.4
			c-0.5-0.1-1.3-0.1-2.3-0.1c-2.1,0-3.1,0.7-3.1,2.2c0,0.5,0.2,1,0.5,1.3c0.4,0.3,0.9,0.5,1.5,0.5C153.5,65.3,154.3,65,154.9,64.3z"
			/>
		<path class="st1" d="M162.7,55.6c0.9-0.8,2.2-1.2,3.8-1.2c0.7,0,1.4,0.1,2,0.3h3.6c0.8,0,1.2,0.3,1.2,1c0,0.7-0.4,1-1.2,1h-0.9
			c0.3,0.7,0.5,1.4,0.5,2.1c0,1.3-0.4,2.3-1.4,3.1c-0.9,0.8-2.2,1.2-3.8,1.2c-0.9,0-1.7-0.1-2.4-0.4c-0.5,0.3-0.7,0.6-0.7,1.1
			c0,0.4,0.3,0.7,0.8,0.9c0.6,0.2,1.6,0.3,3.1,0.4c1.7,0.1,3.1,0.3,4,0.8c0.9,0.5,1.4,1.3,1.4,2.4c0,1.3-0.6,2.4-1.7,3.2
			c-1.1,0.8-2.7,1.2-4.8,1.2c-2.1,0-3.6-0.3-4.5-1c-0.9-0.7-1.3-1.6-1.3-2.6c0-1.2,0.6-2.2,1.9-2.9c-0.8-0.4-1.2-1.1-1.2-2
			c0-0.9,0.5-1.7,1.4-2.5c-0.8-0.8-1.1-1.7-1.1-2.9C161.3,57.5,161.8,56.4,162.7,55.6z M164.5,67c-0.9,0.4-1.4,1-1.4,1.8
			c0,0.5,0.3,0.9,0.8,1.2c0.5,0.3,1.3,0.5,2.4,0.5c1.3,0,2.2-0.2,2.8-0.5c0.6-0.4,0.9-0.8,0.9-1.4c0-0.4-0.3-0.7-0.8-0.9
			c-0.5-0.2-1.4-0.3-2.7-0.4C165.7,67.2,165.1,67.1,164.5,67z M164.6,60.3c0.5,0.4,1.1,0.6,1.9,0.6c0.8,0,1.4-0.2,1.9-0.6
			c0.5-0.4,0.7-0.9,0.7-1.5c0-0.6-0.2-1.2-0.7-1.5c-0.5-0.4-1.1-0.6-1.9-0.6c-0.8,0-1.4,0.2-1.9,0.6c-0.5,0.4-0.7,0.9-0.7,1.5
			C163.9,59.4,164.2,60,164.6,60.3z"/>
		<path class="st1" d="M176.8,62.1c0,1,0.4,1.8,1,2.3c0.6,0.6,1.4,0.8,2.4,0.8c0.8,0,1.7-0.2,2.7-0.7c0.8-0.3,1.3-0.2,1.6,0.4
			c0.2,0.3,0.2,0.5,0.1,0.9c-0.1,0.3-0.3,0.6-0.6,0.8c-1,0.7-2.4,1-4.1,1c-1.9,0-3.4-0.6-4.4-1.7c-1-1.1-1.5-2.7-1.5-4.8
			c0-2,0.5-3.6,1.6-4.8c1.1-1.2,2.5-1.8,4.4-1.8c1.6,0,2.9,0.5,3.9,1.4c0.9,0.9,1.4,2.2,1.4,3.7c0,0.5,0,0.9-0.1,1.2
			c-0.1,0.4-0.3,0.8-0.6,1c-0.3,0.2-0.6,0.3-1.1,0.3H176.8z M177.7,57.6c-0.5,0.6-0.9,1.4-0.9,2.4h5.7c0-0.2,0-0.4,0-0.6
			c0-0.8-0.2-1.4-0.7-1.9c-0.4-0.5-1.1-0.7-1.9-0.7C179,56.8,178.3,57.1,177.7,57.6z"/>
		<path class="st1" d="M187.6,56.2c0-0.4,0.1-0.8,0.4-1.1c0.2-0.3,0.6-0.4,1.1-0.4c0.5,0,0.8,0.1,1.1,0.4c0.3,0.3,0.4,0.6,0.4,1.1
			v0.4c0.4-0.7,0.9-1.2,1.6-1.6c0.7-0.4,1.4-0.5,2.2-0.5c1.6,0,2.7,0.5,3.4,1.4c0.7,0.9,1,2.3,1,4.1v5.9c0,0.4-0.1,0.8-0.4,1.1
			c-0.3,0.3-0.6,0.4-1.1,0.4c-0.5,0-0.8-0.1-1.1-0.4c-0.2-0.3-0.4-0.6-0.4-1.1v-5.9c0-1.9-0.7-2.9-2.2-2.9c-0.6,0-1.1,0.1-1.5,0.4
			c-0.4,0.3-0.7,0.7-1,1.3c-0.2,0.5-0.4,1.1-0.5,1.7c-0.1,0.6-0.1,1.3-0.2,2.1v3.3c0,0.4-0.1,0.8-0.4,1.1c-0.3,0.3-0.6,0.4-1.1,0.4
			c-0.5,0-0.8-0.1-1.1-0.4c-0.2-0.3-0.4-0.6-0.4-1.1V56.2z"/>
	</g>
</g>
</svg>
